<svg id="Layer_1" data-name="Layer 1" xmlns="http://www.w3.org/2000/svg" viewBox="0 0 351.08 51.13"><defs><style>.cls-1{fill:#49c0e3;}</style></defs><title>Logo - Blue - Wide</title><path d="M156.9,25.41V50.69h-9.6V25.41c0-8.58-4.92-15.68-10.88-15.68s-10.88,7.1-10.88,15.68V50.69h-9.66V25.41c0-8.58-5-15.68-10.88-15.68V.06c6.27,0,12,3.46,15.74,9.09,3.72-5.63,9.35-9.09,15.68-9.09C147.75.06,156.9,11.46,156.9,25.41Z"/><path d="M351.08.38V10c-5.95,0-10.88,7.11-10.88,15.68,0,14-9.28,25.35-20.55,25.35V41.34c5.89,0,10.88-7.1,10.88-15.68C330.53,11.71,339.69.38,351.08.38Z"/><path d="M248.55,25.92V51.07H239V25.92c0-8.58-4.93-15.68-10.88-15.68V.58C239.4.58,248.55,12,248.55,25.92Z"/><path d="M218.41.58v9.66c-6,0-10.88,8.54-10.88,17.12,0,9-3.84,17-9.6,21.37A18,18,0,0,1,196,50.1a6.82,6.82,0,0,1-7,0,14.25,14.25,0,0,1-2-1.41c-5.76-4.41-9.67-12.35-9.67-21.37,0-8.58-4.86-17.12-10.81-17.12V.58c11.33,0,20.48,12.83,20.48,26.78a18.46,18.46,0,0,0,4.19,12.24,1.74,1.74,0,0,0,2.57,0,19.15,19.15,0,0,0,4.12-12.2C197.93,13.41,207.08.58,218.41.58Z"/><path d="M299.17,25c0-.64-.06-1.28-.12-1.92s-.13-1.34-.2-2c.13.77.2,1.47.26,2.18S299.17,24.45,299.17,25Z"/><path d="M299.17,25.66V25c0-.64-.06-1.28-.12-1.92s-.13-1.34-.2-2c0-.06-.06-.19-.06-.26a3.49,3.49,0,0,0-.13-.83,7.88,7.88,0,0,0-.25-1.15,11.24,11.24,0,0,0-.32-1.41,27.65,27.65,0,0,0-3.72-8.19,23.5,23.5,0,0,0-3.52-4,9.16,9.16,0,0,0-1.28-1V4.16A17.89,17.89,0,0,0,278.69.32c-6.4,0-12,3.46-15.68,9,0,0,0,.13-.12.13a29.63,29.63,0,0,0-4.74,16.19A29.12,29.12,0,0,0,263,42c3.84,5.51,9.41,9,15.68,9s11.91-3.45,15.68-9c0,0,0-.13.07-.13a18.41,18.41,0,0,0,2.17,2.88,18.07,18.07,0,0,0,13.44,6.27v-9.6C304.17,41.34,299.17,34.24,299.17,25.66ZM278.69,41.34c-5.88,0-10.81-7-10.88-15.42v-.58c.07-8.44,5-15.42,10.88-15.42s10.76,7,10.88,15.42v.9C289.32,34.56,284.45,41.34,278.69,41.34Z"/><path d="M299.17,25c0-.64-.06-1.28-.12-1.92,0,.07.06.13.06.2C299.11,23.87,299.17,24.45,299.17,25Z"/><path d="M294.44,41.79a18.41,18.41,0,0,0,2.17,2.88,19.72,19.72,0,0,1-2.24-2.75S294.37,41.79,294.44,41.79Z"/><path class="cls-1" d="M95.12,0V9.71c-5.94,0-11,7.18-11,15.85,0,14.07-9.26,25.57-20.75,25.57S42.66,39.63,42.66,25.56c0-8.67-5-15.85-11-15.85s-11,7.18-11,15.85c0,14.07-9.17,25.57-20.66,25.57V41.47c6,0,11-7.24,11-15.91C11,11.44,20.31,0,31.66,0S52.37,11.44,52.37,25.56c0,8.67,5,15.91,11,15.91s11-7.24,11-15.91C74.36,11.44,83.68,0,95.12,0Z"/></svg>